<svg width="404" height="116" viewBox="0 0 404 116" fill="none" xmlns="http://www.w3.org/2000/svg">
<path d="M117.104 72.0585C108.973 67.093 105.294 58.0954 105.03 47.2157C104.784 37.0836 110.338 28.5397 116.589 24.2136C123.01 19.7689 130.247 18.9852 134.579 18.9852C141.455 18.9852 145.002 20.2794 147.19 21.2849C149.362 22.28 151.198 23.5742 152.268 24.0847C152.931 24.4044 153.194 24.4044 153.638 23.9661C154.132 23.4866 154.527 22.5378 154.889 21.522C155.201 20.63 155.497 20.63 156.057 20.6506H160.492C161.249 20.6506 161.419 20.9394 161.419 21.4344V40.956C161.419 41.714 160.975 42.1625 160.328 42.1625H155.382C154.477 42.1625 154.203 41.6675 154.011 40.8632C153.523 38.8007 152.246 34.686 149.323 31.5097C146.779 28.7408 142.935 26.5081 137.436 26.5081C130.971 26.5081 126.957 29.0657 124.167 32.5307C120.794 36.7227 119.287 42.5596 119.287 48.1954C119.287 58.4924 124.759 69.6866 135.95 69.6866C140.989 69.6866 145.024 67.9954 148.309 65.4585C152.015 62.5968 153.331 58.8791 154.521 55.3368C154.784 54.5479 155.229 54.4654 155.897 54.4654H161.101C162.22 54.4654 162.395 54.5427 162.252 55.5637C161.792 58.7709 159.659 68.1656 150.409 73.0331C143.533 76.6527 127.846 78.6224 117.104 72.0637V72.0585Z" fill="white"/>
<path d="M219.184 68.6399C220.215 68.5574 222.09 68.4285 222.973 68.2893C224.717 68.016 226.658 66.3299 227.76 63.989C228.637 62.1327 244.708 26.2658 247.373 20.1505C247.614 19.5988 247.938 19.2946 248.409 19.2946H258.317C259.102 19.2946 259.343 19.4544 259.644 20.1453C262.518 26.8124 276.472 57.3684 279.291 63.8652C280.393 66.4021 282.674 67.5417 284.346 67.9902C285.284 68.2429 286.846 68.3924 287.691 68.4388C288.568 68.4904 288.886 68.6296 288.886 69.5217C288.881 70.9706 288.864 73.8684 288.864 74.3582C288.864 75.2503 288.321 75.209 288.036 75.209H258.158C257.5 75.209 257.139 74.8842 257.139 74.384V69.367C257.139 68.6245 257.522 68.1449 258.126 68.1243C258.959 68.0985 260.209 68.0676 261.454 68.0676C264.601 68.0676 265.27 66.5517 264.552 64.6593C264.091 63.4527 262.973 60.5704 262.013 58.6832C261.596 57.8582 261.191 57.6984 260.237 57.6984H240.963C239.521 57.6984 238.655 58.2449 238.271 59.271C237.493 61.3335 237.207 62.0606 236.352 64.3499C235.447 66.7631 237.372 68.2842 239.285 68.2842C240.185 68.2842 241.133 68.3048 241.885 68.3254C242.734 68.3512 243.338 68.7482 243.338 69.6763V73.9818C243.338 74.8996 243.063 75.1574 242.054 75.1574H219.327C218.439 75.1574 218.099 74.6831 218.099 74.0128V69.8929C218.099 68.9957 218.554 68.6863 219.195 68.6348L219.184 68.6399ZM249.314 32.9277C248.881 34.0002 244.275 44.4313 242.34 48.8193C241.819 50.0001 241.912 50.7426 243.047 50.7426H256.601C258.317 50.7426 258.548 50.1908 257.851 48.6285C255.817 44.1013 251.189 33.7888 250.8 32.9638C250.301 31.9016 249.862 31.5613 249.314 32.9225V32.9277Z" fill="white"/>
<path d="M165.027 26.1575C164.496 26.1421 164.134 26.0493 164.134 25.4666C164.134 24.9974 164.134 21.2436 164.134 19.8308C164.134 19.3822 164.183 19.2997 164.951 19.2997H200.361C209.221 19.2997 217.49 23.4402 220.829 27.6271C225.369 33.3247 226.768 38.7336 226.768 46.3185C226.768 53.9034 224.026 61.5862 218.587 67.1549C213.624 72.2339 204.166 75.2193 196.221 75.2193H163.64C163.64 75.2193 163.64 74.812 163.64 74.2139C163.64 72.734 163.635 70.0837 163.64 69.5062C163.646 68.6967 164.04 68.5781 165.033 68.5781C167.314 68.5781 172.155 68.4646 172.155 64.0302V29.7927C172.155 27.4621 171.618 26.8175 168.718 26.3947C167.665 26.24 166.036 26.1782 165.027 26.1524V26.1575ZM224.465 48.7162C224.558 48.7368 224.657 48.7471 224.761 48.7471C225.446 48.7471 226 48.2263 226 47.5818C226 46.9373 225.446 46.4165 224.761 46.4165C224.075 46.4165 223.522 46.9373 223.522 47.5818C223.522 47.9066 223.659 48.1954 223.883 48.4068L223.933 48.4377C223.911 48.479 223.84 48.5563 223.818 48.6027C223.023 50.3507 220.5 52.8515 218.899 53.9601C216.454 55.6513 212.084 56.4505 212.232 56.3165C212.38 56.1824 213.893 55.739 215.757 54.4293C217.605 53.1351 218.899 52.3152 221.191 47.2415C221.241 47.128 221.279 47.0713 221.279 47.0713C221.849 46.963 222.277 46.4938 222.277 45.9266C222.277 45.2821 221.723 44.7613 221.038 44.7613C220.352 44.7613 219.798 45.2821 219.798 45.9266C219.798 46.3855 220.078 46.7826 220.489 46.9733C220.254 47.4941 218.691 51.5521 216.152 53.3929C214.365 54.6923 211.25 57.126 208.723 55.2801C206.474 53.6404 210.028 48.8657 211.261 47.0919C221.624 32.1955 206.113 24.5436 203.744 24.028C199.154 23.0328 200.953 26.8639 200.498 26.8072C199.95 26.7402 198.743 26.4618 197.904 27.0805C196.873 27.8385 197.383 29.6689 197.137 29.5864C196.446 29.3441 194.324 29.6071 194.253 31.2674C194.181 32.9844 195.355 33.4433 196.55 34.7324C205.06 43.8951 206.058 54.9965 205.531 54.9913C205.06 54.9862 203.563 35.8513 184.887 28.7666C183.555 28.2613 178.51 27.4053 178.439 30.4682C178.384 32.7163 179.525 32.309 179.613 32.8452C179.7 33.3815 177.282 33.3144 177.353 35.8358C177.408 37.8107 179.075 38.4346 179.092 38.7801C179.108 39.1307 177.644 39.2596 177.787 41.7758C177.885 43.5083 179.475 43.7816 179.525 44.2302C179.591 44.8232 178.149 44.8438 178.439 46.6124C178.708 48.2521 180.292 47.7365 180.397 48.1129C180.616 48.9327 178.587 48.9327 178.949 51.449C179.201 53.1969 180.605 54.3365 182.206 54.517C182.661 54.5685 184.454 54.3107 186.483 53.6971C187.442 53.4084 188.731 53.2898 188.874 54.1045C188.945 54.4963 187.755 54.8985 186.05 54.9191C183.851 54.9501 180.923 54.6046 179.892 55.5327C179.607 55.7854 178.944 56.7187 179.311 57.6468C179.744 58.7348 180.276 58.214 180.468 58.807C180.599 59.2143 179.887 59.5546 180.249 60.4415C180.627 61.3696 181.603 61.1376 181.63 61.2974C181.685 61.5707 180.83 62.009 180.61 62.4885C180.199 63.3857 180.309 64.4531 180.83 65.077C182.48 67.0518 185.013 67.2838 187.985 66.7837C190.151 66.4176 192.191 65.7782 194.104 63.5559C198.316 58.6523 199.462 57.884 201.397 57.1466C202.943 56.5537 198.54 58.8379 195.854 62.5195C195.207 63.4063 194.104 65.5462 193.589 66.5052C192.651 68.2635 191.248 68.4079 190.798 69.2123C190.349 70.0218 190.502 70.5374 190.93 71.0943C191.357 71.6512 193.013 71.8162 193.885 70.522C195.574 68.0212 196.49 65.1646 198.157 63.2156C199.368 61.7976 201.326 60.3538 202.653 59.7145C204.983 58.5904 207.494 58.3996 208.251 58.2913C208.98 58.1882 210.099 58.3016 210.291 58.0541C210.488 57.8066 210.499 56.796 210.921 56.8373C211.875 56.9301 214.447 56.5021 217.457 55.3162C220.467 54.1302 223.116 50.8096 223.702 49.9279C223.993 49.4896 224.459 48.6955 224.459 48.6955L224.465 48.7162Z" fill="white"/>
<path d="M298.975 71.8729C298.975 73.7446 297.412 75.2142 295.378 75.2142C293.344 75.2142 291.759 73.7446 291.759 71.8729C291.759 70.0012 293.366 68.5729 295.378 68.5729C297.39 68.5729 298.975 70.0424 298.975 71.8729ZM292.664 71.8729C292.664 73.3424 293.821 74.5078 295.406 74.5078C296.99 74.5078 298.081 73.3424 298.081 71.8935C298.081 70.4446 296.946 69.2381 295.384 69.2381C293.821 69.2381 292.664 70.424 292.664 71.8729ZM294.824 73.6054H294.013V70.3054C294.336 70.2435 294.78 70.2023 295.362 70.2023C296.025 70.2023 296.327 70.3054 296.579 70.4446C296.771 70.5838 296.919 70.8468 296.919 71.1665C296.919 71.5274 296.617 71.811 296.19 71.9296V71.9709C296.53 72.0895 296.727 72.3318 296.831 72.7753C296.941 73.2806 297.001 73.4817 297.089 73.6003H296.212C296.102 73.4817 296.042 73.1774 295.932 72.7959C295.866 72.4349 295.652 72.2751 295.203 72.2751H294.819V73.6054H294.824ZM294.846 71.7337H295.23C295.68 71.7337 296.042 71.5945 296.042 71.249C296.042 70.9448 295.806 70.7437 295.29 70.7437C295.077 70.7437 294.929 70.7643 294.841 70.7849V71.7285L294.846 71.7337Z" fill="white"/>
<path d="M22.1747 97.0458C21.6319 96.9323 21.0397 96.7828 20.3927 96.5972C19.9979 96.4631 19.7018 96.3858 19.5044 96.3754L19.6634 93.0033H20.93L21.2645 95.4267C21.4893 95.6278 21.8567 95.8031 22.3611 95.9578C22.871 96.1125 23.4248 96.1898 24.0335 96.1898C25.0369 96.1898 25.799 95.9784 26.3199 95.5556C26.8408 95.1328 27.104 94.5501 27.104 93.8025C27.104 93.3178 26.9615 92.9001 26.6763 92.5547C26.3912 92.2092 26.0129 91.9101 25.5468 91.6626C25.0753 91.4151 24.4337 91.1212 23.6168 90.7861C22.8765 90.4767 22.235 90.157 21.6867 89.8373C21.1384 89.5125 20.6613 89.0845 20.2611 88.5431C19.8553 88.0017 19.6579 87.352 19.6579 86.594C19.6579 85.9134 19.8498 85.2998 20.2446 84.7584C20.6339 84.217 21.1932 83.7942 21.9279 83.4848C22.6627 83.1754 23.5181 83.0207 24.4941 83.0207C25.1027 83.0207 25.64 83.062 26.1061 83.1496C26.5722 83.2373 27.104 83.3559 27.7017 83.5054C27.9649 83.5931 28.1897 83.6498 28.3761 83.6756L28.2555 86.8054H27.0492L26.6544 84.5161C26.5228 84.3923 26.2487 84.2737 25.8319 84.1603C25.4152 84.0468 24.9656 83.9901 24.4776 83.9901C23.5674 83.9901 22.8765 84.1706 22.405 84.5315C21.9334 84.8925 21.7031 85.4132 21.7031 86.0939C21.7031 86.5889 21.8457 87.0065 22.1308 87.3417C22.4159 87.6768 22.7669 87.9604 23.1891 88.1976C23.6113 88.4348 24.2857 88.7545 25.2123 89.167C26.0732 89.5537 26.7696 89.8992 27.3124 90.2086C27.8552 90.5179 28.3213 90.9253 28.7106 91.4306C29.0999 91.9359 29.2973 92.534 29.2973 93.2301C29.2973 93.8901 29.0999 94.5192 28.7106 95.1276C28.3213 95.7361 27.7291 96.2362 26.9286 96.6281C26.128 97.02 25.163 97.2159 24.028 97.2159C23.3426 97.2159 22.7285 97.1592 22.1857 97.0458H22.1747Z" fill="white"/>
<path d="M39.1231 96.9736C38.9477 96.8395 38.8545 96.6126 38.8545 96.3033V95.669C38.4213 96.0764 37.873 96.4373 37.2205 96.7518C36.568 97.0612 35.91 97.2159 35.252 97.2159C34.0238 97.2159 33.152 96.9065 32.6366 96.2826C32.1212 95.6639 31.8635 94.6378 31.8635 93.2095V87.8057L30.7559 87.5067V86.6868L33.5303 86.4445H33.5523L33.9306 86.6662V93.0548C33.9306 93.7767 33.9854 94.3387 34.1006 94.7409C34.2102 95.1431 34.4131 95.4422 34.6928 95.6329C34.9779 95.8237 35.3891 95.9217 35.9319 95.9217C36.4748 95.9217 36.9573 95.8186 37.4179 95.6072C37.8785 95.3958 38.2842 95.1483 38.6242 94.8647V87.8057L37.1986 87.5067V86.6868L40.2088 86.4445H40.2307L40.6858 86.6662V96.0558H41.8757L41.8537 96.8962C41.4864 96.9839 41.1629 97.0509 40.8942 97.1025C40.6255 97.154 40.3075 97.1747 39.9511 97.1747C39.5947 97.1747 39.3096 97.1076 39.1286 96.9684L39.1231 96.9736Z" fill="white"/>
<path d="M53.4724 94.3748C53.0119 95.2514 52.3484 95.9423 51.493 96.4528C50.6322 96.9633 49.6288 97.2159 48.4828 97.2159C48.1648 97.2159 47.8248 97.1901 47.4519 97.1437C47.0846 97.0922 46.783 97.0303 46.5637 96.9581L46.624 98.5205V100.402L48.6857 100.609V101.521H43.1587V100.609L44.5843 100.402V88.11L43.1367 87.7748V86.7693L45.9496 86.4342H45.988L46.4047 86.7693V87.8676C46.7995 87.4603 47.2929 87.1097 47.8796 86.8261C48.4663 86.5425 49.1243 86.3981 49.8481 86.3981C50.6267 86.3981 51.345 86.5786 51.9975 86.9395C52.65 87.3004 53.1764 87.8573 53.5711 88.6153C53.9659 89.3732 54.1633 90.3272 54.1633 91.4822C54.1633 92.5392 53.933 93.5034 53.4724 94.38V94.3748ZM47.6274 87.9965C47.1942 88.1976 46.8543 88.4142 46.6185 88.6462V95.669C46.7117 95.8186 46.9475 95.9526 47.3204 96.0712C47.6932 96.1898 48.1099 96.2465 48.5595 96.2465C49.5739 96.2465 50.3964 95.8701 51.027 95.1122C51.652 94.3542 51.9701 93.2147 51.9701 91.6832C51.9701 90.3426 51.6959 89.3423 51.1476 88.6823C50.5993 88.0223 49.8974 87.6975 49.0366 87.6975C48.5321 87.6975 48.0661 87.7954 47.6274 87.9965Z" fill="white"/>
<path d="M65.9139 94.3748C65.4533 95.2514 64.7898 95.9423 63.9344 96.4528C63.0736 96.9633 62.0702 97.2159 60.9242 97.2159C60.6062 97.2159 60.2662 97.1901 59.8934 97.1437C59.526 97.0922 59.2244 97.0303 59.0051 96.9581L59.0654 98.5205V100.402L61.1271 100.609V101.521H55.6001V100.609L57.0257 100.402V88.11L55.5781 87.7748V86.7693L58.391 86.4342H58.4294L58.8461 86.7693V87.8676C59.2409 87.4603 59.7343 87.1097 60.321 86.8261C60.9077 86.5425 61.5657 86.3981 62.2895 86.3981C63.0681 86.3981 63.7864 86.5786 64.4389 86.9395C65.0914 87.3004 65.6178 87.8573 66.0125 88.6153C66.4073 89.3732 66.6047 90.3272 66.6047 91.4822C66.6047 92.5392 66.3744 93.5034 65.9139 94.38V94.3748ZM60.0688 87.9965C59.6357 88.1976 59.2957 88.4142 59.0599 88.6462V95.669C59.1531 95.8186 59.3889 95.9526 59.7618 96.0712C60.1346 96.1898 60.5513 96.2465 61.001 96.2465C62.0153 96.2465 62.8378 95.8701 63.4684 95.1122C64.0934 94.3542 64.4115 93.2147 64.4115 91.6832C64.4115 90.3426 64.1373 89.3423 63.589 88.6823C63.0407 88.0223 62.3388 87.6975 61.478 87.6975C60.9735 87.6975 60.5075 87.7954 60.0688 87.9965Z" fill="white"/>
<path d="M69.774 83.1135L68.1675 82.9073V82.1081L71.3587 81.7523H71.3971L71.8302 82.0307V95.9475L73.5135 96.097V97.0097H68.1675V96.097L69.774 95.9268V83.1135Z" fill="white"/>
<path d="M76.1453 95.7412C75.3064 94.7615 74.8896 93.4519 74.8896 91.8122C74.8896 90.7293 75.109 89.7806 75.5421 88.9608C75.9753 88.1409 76.5894 87.5067 77.3735 87.0581C78.1576 86.6095 79.0514 86.3878 80.0603 86.3878C81.2885 86.3878 82.2425 86.7075 82.9225 87.3468C83.6024 87.9862 83.9642 88.904 84.0026 90.0951C84.0026 90.8531 83.9588 91.4306 83.8655 91.8276H77.05C77.0774 93.0548 77.379 94.05 77.9602 94.7976C78.5414 95.5505 79.3639 95.9269 80.4386 95.9269C80.965 95.9269 81.5188 95.8392 82.0945 95.6587C82.6702 95.4783 83.1144 95.2669 83.4324 95.0142L83.8107 95.834C83.4269 96.2053 82.8621 96.5301 82.1055 96.8034C81.3543 97.0767 80.5866 97.2108 79.808 97.2108C78.2124 97.2108 76.9897 96.7209 76.1508 95.7412H76.1453ZM81.8203 90.8428C81.8587 90.5798 81.8807 90.3169 81.8807 90.0436C81.8697 89.234 81.6833 88.5998 81.3378 88.1358C80.9869 87.6717 80.4386 87.4397 79.6819 87.4397C78.9252 87.4397 78.3057 87.7026 77.8506 88.2234C77.3954 88.7442 77.1323 89.6208 77.0665 90.8479H81.8203V90.8428Z" fill="white"/>
<path d="M85.6808 96.097L86.887 95.9268V88.1048L85.4614 87.7696V86.7642L88.2962 86.429L88.6526 86.6714L88.7732 87.419L88.7513 88.0171C89.2119 87.6201 89.8425 87.2592 90.643 86.9292C91.4435 86.5992 92.1563 86.4342 92.7924 86.4342C93.5052 86.4342 94.0809 86.5476 94.5141 86.7693C94.9473 86.991 95.2817 87.3417 95.5065 87.8109C95.9287 87.4757 96.5209 87.1612 97.2776 86.8725C98.0343 86.5785 98.7471 86.4342 99.4051 86.4342C100.222 86.4342 100.864 86.5785 101.324 86.8725C101.785 87.1664 102.114 87.6201 102.306 88.2337C102.498 88.8473 102.591 89.6723 102.591 90.7036V95.9372L104.016 96.1073V97.02H99.3009V96.1073L100.529 95.9372V90.7603C100.529 90.0384 100.474 89.4661 100.359 89.0381C100.244 88.6101 100.036 88.2904 99.7231 88.079C99.4105 87.8676 98.9664 87.7645 98.3852 87.7645C97.952 87.7645 97.486 87.8521 96.998 88.0326C96.51 88.2131 96.0932 88.4296 95.7478 88.6771C95.8684 89.1618 95.9287 89.8528 95.9287 90.7448V95.9423L97.3379 96.1125V97.0251H92.5456V96.1125L93.8506 95.9423V90.7242C93.8506 89.9765 93.8013 89.399 93.7026 88.9917C93.6039 88.5843 93.4175 88.275 93.1378 88.0687C92.8582 87.8625 92.436 87.7593 91.8712 87.7593C91.3942 87.7593 90.8897 87.8728 90.3579 88.0945C89.8205 88.3162 89.3545 88.5792 88.9597 88.8782V95.9372L90.2866 96.1073V97.02H85.6698V96.1073L85.6808 96.097Z" fill="white"/>
<path d="M106.626 95.7412C105.787 94.7615 105.371 93.4519 105.371 91.8122C105.371 90.7293 105.59 89.7806 106.023 88.9608C106.456 88.1409 107.07 87.5067 107.854 87.0581C108.639 86.6095 109.532 86.3878 110.541 86.3878C111.769 86.3878 112.724 86.7075 113.403 87.3468C114.083 87.9862 114.445 88.904 114.484 90.0951C114.484 90.8531 114.44 91.4306 114.347 91.8276H107.531C107.558 93.0548 107.86 94.05 108.441 94.7976C109.022 95.5505 109.845 95.9269 110.92 95.9269C111.446 95.9269 112 95.8392 112.575 95.6587C113.151 95.4783 113.595 95.2669 113.913 95.0142L114.292 95.834C113.908 96.2053 113.343 96.5301 112.586 96.8034C111.835 97.0767 111.068 97.2108 110.289 97.2108C108.693 97.2108 107.471 96.7209 106.632 95.7412H106.626ZM112.301 90.8428C112.34 90.5798 112.362 90.3169 112.362 90.0436C112.351 89.234 112.164 88.5998 111.819 88.1358C111.468 87.6717 110.92 87.4397 110.163 87.4397C109.406 87.4397 108.787 87.7026 108.332 88.2234C107.876 88.7442 107.613 89.6208 107.547 90.8479H112.301V90.8428Z" fill="white"/>
<path d="M117.373 88.1048L115.948 87.7696V86.7642L118.783 86.429H118.843L119.26 86.7642V87.5479L119.238 87.9965C119.715 87.5995 120.34 87.2385 121.118 86.9137C121.897 86.5889 122.643 86.429 123.355 86.429C124.189 86.429 124.83 86.5786 125.286 86.8776C125.741 87.1767 126.064 87.6304 126.245 88.2492C126.432 88.8628 126.525 89.6929 126.525 90.7345V95.9526L127.912 96.0815V97.0148H123.218V96.1022L124.447 95.9526V90.719C124.447 89.9868 124.392 89.4145 124.288 88.9968C124.183 88.5792 123.986 88.2698 123.695 88.0636C123.405 87.8573 122.983 87.7542 122.429 87.7542C121.952 87.7542 121.447 87.8676 120.905 88.0893C120.362 88.3111 119.879 88.574 119.457 88.8731V95.932L120.806 96.1022V97.0148H116.129V96.1022L117.379 95.932V88.11L117.373 88.1048Z" fill="white"/>
<path d="M131.043 96.7106C130.676 96.3857 130.489 95.834 130.489 95.0503V87.8986H129.063V87.0581C129.129 87.0478 129.316 87.0014 129.617 86.9292C129.919 86.857 130.127 86.7848 130.231 86.7229C130.445 86.6095 130.61 86.3878 130.725 86.0526C130.829 85.8154 130.955 85.439 131.103 84.9182C131.246 84.3975 131.333 84.0881 131.361 83.985H132.529L132.567 86.6662H135.874V87.8934H132.567V93.6117C132.567 94.3181 132.589 94.8182 132.638 95.1018C132.682 95.3854 132.781 95.5762 132.935 95.6587C133.088 95.7464 133.346 95.7876 133.719 95.7876C134.092 95.7876 134.47 95.7464 134.898 95.6587C135.325 95.5711 135.66 95.4782 135.895 95.3803L136.192 96.2208C135.874 96.4425 135.364 96.659 134.656 96.8704C133.949 97.0818 133.307 97.185 132.726 97.185C131.975 97.185 131.41 97.0251 131.043 96.7003V96.7106Z" fill="white"/>
<path d="M139.262 91.6368C140.501 91.0851 142.075 90.7912 143.977 90.75V90.2292C143.977 89.6465 143.912 89.1876 143.78 88.8525C143.648 88.5173 143.418 88.2698 143.095 88.1151C142.771 87.9604 142.31 87.8831 141.718 87.8831C141.044 87.8831 140.441 87.9707 139.903 88.1512C139.372 88.3317 138.834 88.5534 138.308 88.8112L137.814 87.8418C137.984 87.7026 138.302 87.5273 138.763 87.3004C139.223 87.0735 139.761 86.8776 140.369 86.7023C140.978 86.527 141.581 86.4393 142.19 86.4393C143.127 86.4393 143.868 86.5579 144.416 86.8003C144.964 87.0426 145.359 87.4293 145.595 87.9656C145.831 88.5018 145.951 89.2134 145.951 90.1054V96.0867H147.119V96.9065C146.856 96.9684 146.522 97.0303 146.121 97.0922C145.721 97.154 145.365 97.185 145.063 97.185C144.696 97.185 144.443 97.1334 144.312 97.0251C144.18 96.922 144.114 96.6848 144.114 96.329V95.7154C143.72 96.0867 143.232 96.4322 142.656 96.7415C142.08 97.0509 141.433 97.2056 140.704 97.2056C139.755 97.2056 138.966 96.9478 138.335 96.4322C137.71 95.9165 137.392 95.174 137.392 94.2047C137.392 93.0393 138.012 92.1782 139.256 91.6265L139.262 91.6368ZM142.749 95.6536C143.199 95.4576 143.61 95.2204 143.977 94.9472V91.7451C142.541 91.7451 141.45 91.9514 140.72 92.369C139.986 92.7867 139.624 93.3281 139.624 93.9984C139.624 94.6687 139.799 95.1637 140.15 95.4782C140.501 95.7928 140.973 95.9526 141.565 95.9526C141.91 95.9526 142.305 95.8547 142.755 95.6536H142.749Z" fill="white"/>
<path d="M149.96 83.1135L148.353 82.9073V82.1081L151.544 81.7523H151.583L152.016 82.0307V95.9475L153.699 96.097V97.0097H148.353V96.097L149.96 95.9268V83.1135Z" fill="white"/>
<path d="M159.824 96.097L161.469 95.9114V84.3253L159.922 84.0829V83.1703H162.516C162.883 83.1703 163.388 83.1445 164.024 83.0981C164.682 83.0465 165.197 83.0259 165.57 83.0259C167.511 83.0259 168.893 83.3198 169.721 83.9128C170.543 84.5006 170.96 85.4287 170.96 86.6971C170.96 87.5789 170.697 88.3884 170.176 89.1206C169.655 89.8528 168.937 90.3478 168.027 90.6107C168.449 90.8222 168.843 91.1831 169.205 91.6987C169.567 92.2143 170.011 92.9311 170.543 93.8489C170.955 94.545 171.267 95.0554 171.486 95.3751C171.706 95.7 171.914 95.8804 172.111 95.9165L172.885 96.1022V97.0148H170.148C169.935 97.0148 169.699 96.7983 169.436 96.3703C169.172 95.9423 168.822 95.2823 168.388 94.3851C167.911 93.4054 167.5 92.6268 167.149 92.0493C166.798 91.4718 166.453 91.1006 166.107 90.9407C164.693 90.9407 163.854 90.9356 163.591 90.9201V95.9114L165.554 96.097V97.0097H159.829V96.097H159.824ZM167.944 89.1464C168.432 88.6256 168.679 87.847 168.679 86.8157C168.679 85.9082 168.432 85.2173 167.933 84.7378C167.44 84.2582 166.584 84.021 165.367 84.021C164.945 84.021 164.523 84.0468 164.101 84.0932C163.837 84.119 163.667 84.1293 163.585 84.1293V89.9043C163.783 89.9147 164.194 89.925 164.813 89.925H165.943C166.787 89.925 167.456 89.662 167.944 89.1412V89.1464Z" fill="white"/>
<path d="M175.609 91.6368C176.849 91.0851 178.422 90.7912 180.325 90.75V90.2292C180.325 89.6465 180.259 89.1876 180.128 88.8525C179.996 88.5173 179.766 88.2698 179.442 88.1151C179.119 87.9604 178.658 87.8831 178.066 87.8831C177.392 87.8831 176.788 87.9707 176.251 88.1512C175.719 88.3317 175.182 88.5534 174.655 88.8112L174.162 87.8418C174.332 87.7026 174.65 87.5273 175.111 87.3004C175.571 87.0735 176.108 86.8776 176.717 86.7023C177.326 86.527 177.929 86.4393 178.537 86.4393C179.475 86.4393 180.215 86.5579 180.764 86.8003C181.312 87.0426 181.707 87.4293 181.943 87.9656C182.178 88.5018 182.299 89.2134 182.299 90.1054V96.0867H183.467V96.9065C183.204 96.9684 182.869 97.0303 182.469 97.0922C182.069 97.154 181.712 97.185 181.411 97.185C181.043 97.185 180.791 97.1334 180.659 97.0251C180.528 96.922 180.462 96.6848 180.462 96.329V95.7154C180.067 96.0867 179.579 96.4322 179.004 96.7415C178.428 97.0509 177.781 97.2056 177.052 97.2056C176.103 97.2056 175.313 96.9478 174.683 96.4322C174.058 95.9165 173.74 95.174 173.74 94.2047C173.74 93.0393 174.359 92.1782 175.604 91.6265L175.609 91.6368ZM179.097 95.6536C179.546 95.4576 179.958 95.2204 180.325 94.9472V91.7451C178.888 91.7451 177.797 91.9514 177.068 92.369C176.333 92.7867 175.971 93.3281 175.971 93.9984C175.971 94.6687 176.147 95.1637 176.498 95.4782C176.849 95.7928 177.32 95.9526 177.912 95.9526C178.258 95.9526 178.653 95.8547 179.102 95.6536H179.097Z" fill="white"/>
<path d="M186.565 96.7106C186.197 96.3857 186.011 95.834 186.011 95.0503V87.8986H184.585V87.0581C184.651 87.0478 184.838 87.0014 185.139 86.9292C185.441 86.857 185.649 86.7848 185.753 86.7229C185.967 86.6095 186.132 86.3878 186.247 86.0526C186.351 85.8154 186.477 85.439 186.625 84.9182C186.768 84.3975 186.855 84.0881 186.883 83.985H188.051L188.089 86.6662H191.396V87.8934H188.089V93.6117C188.089 94.3181 188.111 94.8182 188.16 95.1018C188.204 95.3854 188.303 95.5762 188.457 95.6587C188.61 95.7464 188.868 95.7876 189.241 95.7876C189.613 95.7876 189.992 95.7464 190.42 95.6587C190.847 95.5711 191.182 95.4782 191.417 95.3803L191.714 96.2208C191.396 96.4425 190.886 96.659 190.178 96.8704C189.471 97.0818 188.829 97.185 188.248 97.185C187.497 97.185 186.932 97.0251 186.565 96.7003V96.7106Z" fill="white"/>
<path d="M194.143 95.7412C193.304 94.7615 192.887 93.4519 192.887 91.8122C192.887 90.7293 193.107 89.7806 193.54 88.9608C193.973 88.1409 194.587 87.5067 195.371 87.0581C196.155 86.6095 197.049 86.3878 198.058 86.3878C199.286 86.3878 200.24 86.7075 200.92 87.3468C201.6 87.9862 201.962 88.904 202 90.0951C202 90.8531 201.956 91.4306 201.863 91.8276H195.048C195.075 93.0548 195.377 94.05 195.958 94.7976C196.539 95.5505 197.361 95.9269 198.436 95.9269C198.963 95.9269 199.516 95.8392 200.092 95.6587C200.668 95.4783 201.112 95.2669 201.43 95.0142L201.808 95.834C201.424 96.2053 200.86 96.5301 200.103 96.8034C199.352 97.0767 198.584 97.2108 197.806 97.2108C196.21 97.2108 194.987 96.7209 194.148 95.7412H194.143ZM199.818 90.8428C199.856 90.5798 199.878 90.3169 199.878 90.0436C199.867 89.234 199.681 88.5998 199.335 88.1358C198.984 87.6717 198.436 87.4397 197.679 87.4397C196.923 87.4397 196.303 87.7026 195.848 88.2234C195.393 88.7442 195.13 89.6208 195.064 90.8479H199.818V90.8428Z" fill="white"/>
<path d="M210.099 84.3253L208.552 84.1036V83.1703H211.184C211.661 83.1703 212.127 83.1496 212.588 83.1136C213.301 83.062 213.975 83.0414 214.611 83.0414C216.525 83.0517 217.879 83.3868 218.674 84.0468C219.469 84.7068 219.864 85.6968 219.864 87.0272C219.864 88.0223 219.617 88.8834 219.129 89.6156C218.641 90.3478 217.961 90.9098 217.101 91.2914C216.234 91.6781 215.242 91.8689 214.118 91.8689C213.734 91.8689 213.345 91.8586 212.95 91.8431C212.555 91.8276 212.308 91.807 212.215 91.7967V95.8959L214.929 96.1022V97.0148H208.454V96.1022L210.099 95.9165V84.3304V84.3253ZM214.118 90.8634C215.159 90.8634 216.009 90.5643 216.662 89.9714C217.314 89.3733 217.643 88.3987 217.643 87.0478C217.643 85.9804 217.358 85.2121 216.793 84.7481C216.223 84.284 215.34 84.052 214.14 84.052C213.717 84.052 213.268 84.0778 212.791 84.1242C212.5 84.15 212.308 84.1603 212.215 84.1603V90.7706C212.582 90.8325 213.218 90.8634 214.118 90.8634Z" fill="white"/>
<path d="M223.11 91.6368C224.349 91.0851 225.923 90.7912 227.825 90.75V90.2292C227.825 89.6465 227.76 89.1876 227.628 88.8525C227.497 88.5173 227.266 88.2698 226.943 88.1151C226.619 87.9604 226.159 87.8831 225.566 87.8831C224.892 87.8831 224.289 87.9707 223.752 88.1512C223.22 88.3317 222.682 88.5534 222.156 88.8112L221.662 87.8418C221.832 87.7026 222.15 87.5273 222.611 87.3004C223.072 87.0735 223.609 86.8776 224.218 86.7023C224.826 86.527 225.429 86.4393 226.038 86.4393C226.976 86.4393 227.716 86.5579 228.264 86.8003C228.812 87.0426 229.207 87.4293 229.443 87.9656C229.679 88.5018 229.799 89.2134 229.799 90.1054V96.0867H230.967V96.9065C230.704 96.9684 230.37 97.0303 229.969 97.0922C229.569 97.154 229.213 97.185 228.911 97.185C228.544 97.185 228.292 97.1334 228.16 97.0251C228.028 96.922 227.963 96.6848 227.963 96.329V95.7154C227.568 96.0867 227.08 96.4322 226.504 96.7415C225.928 97.0509 225.281 97.2056 224.552 97.2056C223.603 97.2056 222.814 96.9478 222.183 96.4322C221.558 95.9165 221.24 95.174 221.24 94.2047C221.24 93.0393 221.86 92.1782 223.105 91.6265L223.11 91.6368ZM226.597 95.6536C227.047 95.4576 227.458 95.2204 227.825 94.9472V91.7451C226.389 91.7451 225.298 91.9514 224.569 92.369C223.834 92.7867 223.472 93.3281 223.472 93.9984C223.472 94.6687 223.647 95.1637 223.998 95.4782C224.349 95.7928 224.821 95.9526 225.413 95.9526C225.758 95.9526 226.153 95.8547 226.603 95.6536H226.597Z" fill="white"/>
<path d="M233.303 101.609C233.084 101.583 232.93 101.547 232.837 101.496V99.8765C232.914 99.9281 233.073 99.9642 233.303 99.99C233.533 100.016 233.753 100.026 233.967 100.026C234.603 100.026 235.156 99.8198 235.639 99.4022C236.122 98.9845 236.588 98.1904 237.037 97.0097H236.089L232.327 87.7903L231.417 87.5479V86.6714H236.193V87.5479L234.668 87.7696L236.61 93.2662L237.52 95.9836L238.37 93.2456L240.13 87.7696L238.803 87.5479V86.6714H242.784V87.5479L241.791 87.7696C239.85 93.359 238.71 96.5301 238.364 97.2881C237.915 98.3554 237.503 99.1908 237.136 99.794C236.769 100.397 236.33 100.856 235.831 101.171C235.326 101.485 234.707 101.645 233.967 101.645C233.742 101.645 233.523 101.635 233.303 101.609Z" fill="white"/>
<path d="M243.672 96.097L244.878 95.9268V88.1048L243.453 87.7696V86.7642L246.287 86.429L246.644 86.6714L246.764 87.419L246.743 88.0171C247.203 87.6201 247.834 87.2592 248.634 86.9292C249.435 86.5992 250.148 86.4342 250.784 86.4342C251.496 86.4342 252.072 86.5476 252.505 86.7693C252.938 86.991 253.273 87.3417 253.498 87.8109C253.92 87.4757 254.512 87.1612 255.269 86.8725C256.025 86.5785 256.738 86.4342 257.396 86.4342C258.213 86.4342 258.855 86.5785 259.315 86.8725C259.776 87.1664 260.105 87.6201 260.297 88.2337C260.489 88.8473 260.582 89.6723 260.582 90.7036V95.9372L262.008 96.1073V97.02H257.292V96.1073L258.52 95.9372V90.7603C258.52 90.0384 258.465 89.4661 258.35 89.0381C258.235 88.6101 258.027 88.2904 257.714 88.079C257.402 87.8676 256.958 87.7645 256.376 87.7645C255.943 87.7645 255.477 87.8521 254.989 88.0326C254.501 88.2131 254.084 88.4296 253.739 88.6771C253.86 89.1618 253.92 89.8528 253.92 90.7448V95.9423L255.329 96.1125V97.0251H250.537V96.1125L251.842 95.9423V90.7242C251.842 89.9765 251.792 89.399 251.694 88.9917C251.595 88.5843 251.409 88.275 251.129 88.0687C250.849 87.8625 250.427 87.7593 249.862 87.7593C249.385 87.7593 248.881 87.8728 248.349 88.0945C247.812 88.3162 247.346 88.5792 246.951 88.8782V95.9372L248.278 96.1073V97.02H243.661V96.1073L243.672 96.097Z" fill="white"/>
<path d="M264.617 95.7412C263.779 94.7615 263.362 93.4519 263.362 91.8122C263.362 90.7293 263.581 89.7806 264.014 88.9608C264.447 88.1409 265.062 87.5067 265.846 87.0581C266.63 86.6095 267.524 86.3878 268.532 86.3878C269.761 86.3878 270.715 86.7075 271.395 87.3468C272.075 87.9862 272.436 88.904 272.475 90.0951C272.475 90.8531 272.431 91.4306 272.338 91.8276H265.522C265.55 93.0548 265.851 94.05 266.432 94.7976C267.014 95.5505 267.836 95.9269 268.911 95.9269C269.437 95.9269 269.991 95.8392 270.567 95.6587C271.142 95.4783 271.587 95.2669 271.905 95.0142L272.283 95.834C271.899 96.2053 271.334 96.5301 270.578 96.8034C269.826 97.0767 269.059 97.2108 268.28 97.2108C266.685 97.2108 265.462 96.7209 264.623 95.7412H264.617ZM270.293 90.8428C270.331 90.5798 270.353 90.3169 270.353 90.0436C270.342 89.234 270.155 88.5998 269.81 88.1358C269.459 87.6717 268.911 87.4397 268.154 87.4397C267.397 87.4397 266.778 87.7026 266.323 88.2234C265.868 88.7442 265.604 89.6208 265.539 90.8479H270.293V90.8428Z" fill="white"/>
<path d="M275.365 88.1048L273.939 87.7696V86.7642L276.774 86.429H276.834L277.251 86.7642V87.5479L277.229 87.9965C277.706 87.5995 278.331 87.2385 279.11 86.9137C279.888 86.5889 280.634 86.429 281.347 86.429C282.18 86.429 282.822 86.5786 283.277 86.8776C283.732 87.1767 284.055 87.6304 284.236 88.2492C284.423 88.8628 284.516 89.6929 284.516 90.7345V95.9526L285.903 96.0815V97.0148H281.21V96.1022L282.438 95.9526V90.719C282.438 89.9868 282.383 89.4145 282.279 88.9968C282.175 88.5792 281.977 88.2698 281.687 88.0636C281.396 87.8573 280.974 87.7542 280.42 87.7542C279.943 87.7542 279.439 87.8676 278.896 88.0893C278.353 88.3111 277.87 88.574 277.448 88.8731V95.932L278.797 96.1022V97.0148H274.12V96.1022L275.37 95.932V88.11L275.365 88.1048Z" fill="white"/>
<path d="M289.034 96.7106C288.667 96.3857 288.48 95.834 288.48 95.0503V87.8986H287.055V87.0581C287.12 87.0478 287.307 87.0014 287.608 86.9292C287.91 86.857 288.118 86.7848 288.223 86.7229C288.436 86.6095 288.601 86.3878 288.716 86.0526C288.82 85.8154 288.946 85.439 289.094 84.9182C289.237 84.3975 289.325 84.0881 289.352 83.985H290.52L290.558 86.6662H293.865V87.8934H290.558V93.6117C290.558 94.3181 290.58 94.8182 290.63 95.1018C290.674 95.3854 290.772 95.5762 290.926 95.6587C291.079 95.7464 291.337 95.7876 291.71 95.7876C292.083 95.7876 292.461 95.7464 292.889 95.6587C293.316 95.5711 293.651 95.4782 293.887 95.3803L294.183 96.2208C293.865 96.4425 293.355 96.659 292.647 96.8704C291.94 97.0818 291.299 97.185 290.717 97.185C289.966 97.185 289.401 97.0251 289.034 96.7003V96.7106Z" fill="white"/>
<path d="M301.788 84.3253L300.241 84.1036V83.1703H302.873C303.35 83.1703 303.816 83.1496 304.277 83.1136C304.99 83.062 305.664 83.0414 306.3 83.0414C308.214 83.0517 309.568 83.3868 310.363 84.0468C311.158 84.7068 311.553 85.6968 311.553 87.0272C311.553 88.0223 311.306 88.8834 310.818 89.6156C310.33 90.3478 309.65 90.9098 308.79 91.2914C307.923 91.6781 306.931 91.8689 305.807 91.8689C305.423 91.8689 305.034 91.8586 304.639 91.8431C304.244 91.8276 303.997 91.807 303.904 91.7967V95.8959L306.618 96.1022V97.0148H300.143V96.1022L301.788 95.9165V84.3304V84.3253ZM305.807 90.8634C306.848 90.8634 307.698 90.5643 308.351 89.9714C309.003 89.3733 309.332 88.3987 309.332 87.0478C309.332 85.9804 309.047 85.2121 308.482 84.7481C307.912 84.284 307.029 84.052 305.829 84.052C305.406 84.052 304.957 84.0778 304.48 84.1242C304.189 84.15 303.997 84.1603 303.904 84.1603V90.7706C304.271 90.8325 304.907 90.8634 305.807 90.8634Z" fill="white"/>
<path d="M312.979 96.097L314.465 95.9836V88.1048L313.039 87.7696V86.7642L315.775 86.429H315.814L316.247 86.7642V87.0993L316.187 88.5534H316.247C316.379 88.342 316.614 88.0687 316.96 87.7336C317.305 87.3984 317.744 87.089 318.287 86.8106C318.83 86.5321 319.416 86.3929 320.047 86.3929C320.31 86.3929 320.529 86.4239 320.699 86.4857V88.574C320.606 88.5121 320.458 88.4554 320.255 88.3987C320.052 88.342 319.822 88.3162 319.57 88.3162C318.473 88.3162 317.459 88.6307 316.521 89.265V95.9733L319.038 96.1228V97.0148H312.979V96.1022V96.097Z" fill="white"/>
<path d="M322.745 88.9092C323.233 88.0893 323.88 87.4654 324.675 87.0375C325.47 86.6095 326.331 86.3929 327.241 86.3929C328.902 86.3929 330.158 86.8879 330.997 87.8831C331.836 88.8782 332.252 90.1828 332.252 91.7967C332.252 92.9259 332.006 93.9004 331.518 94.7203C331.03 95.5401 330.383 96.1589 329.587 96.5817C328.787 97.0045 327.932 97.2159 327.021 97.2159C325.36 97.2159 324.104 96.7209 323.265 95.7257C322.427 94.7306 322.01 93.4261 322.01 91.8122C322.01 90.6932 322.257 89.7239 322.745 88.904V88.9092ZM329.242 95.0915C329.73 94.3851 329.977 93.3333 329.977 91.9462C329.977 90.5592 329.752 89.4764 329.302 88.6668C328.853 87.8573 328.134 87.4551 327.142 87.4551C326.232 87.4551 325.53 87.8109 325.031 88.5173C324.537 89.2237 324.291 90.2756 324.291 91.6678C324.291 93.06 324.521 94.1376 324.982 94.9472C325.442 95.7567 326.166 96.1589 327.142 96.1589C328.052 96.1589 328.754 95.8031 329.242 95.0967V95.0915Z" fill="white"/>
<path d="M335.114 101.284C334.352 100.779 333.974 100.088 333.974 99.2062C333.974 98.6597 334.155 98.1544 334.516 97.6954C334.878 97.2365 335.312 96.8859 335.816 96.6539C335.207 96.329 334.906 95.8083 334.906 95.0915C334.906 94.6429 335.043 94.2201 335.322 93.8231C335.602 93.4261 335.964 93.1218 336.414 92.9104C335.75 92.6372 335.246 92.2453 334.9 91.7348C334.549 91.2243 334.374 90.6211 334.374 89.9301C334.374 89.2392 334.588 88.5843 335.015 88.0481C335.443 87.5118 336.013 87.1045 336.721 86.8209C337.428 86.5373 338.179 86.3929 338.969 86.3929C340.301 86.3929 341.343 86.6559 342.1 87.1767C342.297 86.9911 342.604 86.8106 343.01 86.6353C343.421 86.46 343.854 86.3723 344.315 86.3723H344.989V88.012H342.812C343.13 88.4709 343.289 89.0072 343.289 89.6156C343.289 90.3478 343.092 90.9975 342.703 91.5647C342.313 92.1318 341.771 92.5701 341.08 92.8795C340.389 93.1889 339.605 93.3436 338.733 93.3436C338.163 93.3436 337.658 93.2868 337.209 93.1734C337.022 93.3487 336.874 93.5395 336.754 93.7509C336.633 93.9623 336.573 94.1686 336.573 94.3645C336.573 94.8131 336.732 95.1173 337.05 95.2875C337.368 95.4576 337.932 95.5401 338.755 95.5401H340.992C342.275 95.5401 343.224 95.7722 343.843 96.2311C344.463 96.69 344.775 97.3397 344.775 98.1853C344.775 98.8917 344.507 99.5414 343.964 100.134C343.421 100.722 342.692 101.191 341.776 101.532C340.86 101.872 339.863 102.042 338.793 102.042C337.104 102.042 335.876 101.79 335.12 101.289L335.114 101.284ZM340.8 100.686C341.376 100.506 341.842 100.237 342.198 99.8869C342.555 99.5362 342.736 99.1186 342.736 98.6494C342.736 98.0925 342.577 97.6851 342.259 97.4273C341.941 97.1747 341.327 97.0458 340.416 97.0458H338.081C337.554 97.0458 337.137 97.0148 336.83 96.9529C336.288 97.5098 336.019 98.1389 336.019 98.835C336.019 99.5311 336.244 100.057 336.693 100.418C337.143 100.779 337.9 100.959 338.969 100.959C339.616 100.959 340.224 100.872 340.8 100.691V100.686ZM341.184 89.7961C341.184 88.9659 340.987 88.3523 340.597 87.9604C340.208 87.5686 339.621 87.3726 338.843 87.3726C338.113 87.3726 337.543 87.5634 337.121 87.9398C336.699 88.3214 336.485 88.9247 336.485 89.7548C336.485 90.5386 336.688 91.1573 337.088 91.6162C337.488 92.0751 338.102 92.3072 338.919 92.3072C340.427 92.3072 341.178 91.4667 341.178 89.7909L341.184 89.7961Z" fill="white"/>
<path d="M346.119 96.097L347.605 95.9836V88.1048L346.179 87.7696V86.7642L348.916 86.429H348.954L349.387 86.7642V87.0993L349.327 88.5534H349.387C349.519 88.342 349.754 88.0687 350.1 87.7336C350.445 87.3984 350.884 87.089 351.427 86.8106C351.97 86.5321 352.556 86.3929 353.187 86.3929C353.45 86.3929 353.669 86.4239 353.839 86.4857V88.574C353.746 88.5121 353.598 88.4554 353.395 88.3987C353.192 88.342 352.962 88.3162 352.71 88.3162C351.613 88.3162 350.599 88.6307 349.661 89.265V95.9733L352.178 96.1228V97.0148H346.119V96.1022V96.097Z" fill="white"/>
<path d="M357.014 91.6368C358.253 91.0851 359.827 90.7912 361.729 90.75V90.2292C361.729 89.6465 361.664 89.1876 361.532 88.8525C361.4 88.5173 361.17 88.2698 360.847 88.1151C360.523 87.9604 360.062 87.8831 359.47 87.8831C358.796 87.8831 358.193 87.9707 357.655 88.1512C357.123 88.3317 356.586 88.5534 356.06 88.8112L355.566 87.8418C355.736 87.7026 356.054 87.5273 356.515 87.3004C356.975 87.0735 357.513 86.8776 358.121 86.7023C358.73 86.527 359.333 86.4393 359.942 86.4393C360.879 86.4393 361.62 86.5579 362.168 86.8003C362.716 87.0426 363.111 87.4293 363.347 87.9656C363.583 88.5018 363.703 89.2134 363.703 90.1054V96.0867H364.871V96.9065C364.608 96.9684 364.273 97.0303 363.873 97.0922C363.473 97.154 363.117 97.185 362.815 97.185C362.448 97.185 362.195 97.1334 362.064 97.0251C361.932 96.922 361.866 96.6848 361.866 96.329V95.7154C361.472 96.0867 360.984 96.4322 360.408 96.7415C359.832 97.0509 359.185 97.2056 358.456 97.2056C357.507 97.2056 356.718 96.9478 356.087 96.4322C355.462 95.9165 355.144 95.174 355.144 94.2047C355.144 93.0393 355.764 92.1782 357.008 91.6265L357.014 91.6368ZM360.501 95.6536C360.951 95.4576 361.362 95.2204 361.729 94.9472V91.7451C360.293 91.7451 359.202 91.9514 358.472 92.369C357.738 92.7867 357.376 93.3281 357.376 93.9984C357.376 94.6687 357.551 95.1637 357.902 95.4782C358.253 95.7928 358.725 95.9526 359.317 95.9526C359.662 95.9526 360.057 95.8547 360.507 95.6536H360.501Z" fill="white"/>
<path d="M366.248 96.097L367.454 95.9268V88.1048L366.028 87.7696V86.7642L368.863 86.429L369.22 86.6714L369.34 87.419L369.318 88.0171C369.779 87.6201 370.409 87.2592 371.21 86.9292C372.01 86.5992 372.723 86.4342 373.359 86.4342C374.072 86.4342 374.648 86.5476 375.081 86.7693C375.514 86.991 375.849 87.3417 376.073 87.8109C376.496 87.4757 377.088 87.1612 377.844 86.8725C378.601 86.5785 379.314 86.4342 379.972 86.4342C380.789 86.4342 381.43 86.5785 381.891 86.8725C382.352 87.1664 382.681 87.6201 382.873 88.2337C383.064 88.8473 383.158 89.6723 383.158 90.7036V95.9372L384.583 96.1073V97.02H379.868V96.1073L381.096 95.9372V90.7603C381.096 90.0384 381.041 89.4661 380.926 89.0381C380.811 88.6101 380.603 88.2904 380.29 88.079C379.977 87.8676 379.533 87.7645 378.952 87.7645C378.519 87.7645 378.053 87.8521 377.565 88.0326C377.077 88.2131 376.66 88.4296 376.315 88.6771C376.435 89.1618 376.496 89.8528 376.496 90.7448V95.9423L377.905 96.1125V97.0251H373.113V96.1125L374.418 95.9423V90.7242C374.418 89.9765 374.368 89.399 374.269 88.9917C374.171 88.5843 373.984 88.275 373.705 88.0687C373.425 87.8625 373.003 87.7593 372.438 87.7593C371.961 87.7593 371.457 87.8728 370.925 88.0945C370.387 88.3162 369.921 88.5792 369.527 88.8782V95.9372L370.853 96.1073V97.02H366.237V96.1073L366.248 96.097Z" fill="white"/>
</svg>
